<svg width="400" height="300" viewBox="0 0 400 300" fill="none" xmlns="http://www.w3.org/2000/svg">
  <!-- Background -->
  <rect width="400" height="300" fill="#0A0A0A"/>
  
  <!-- Mobile Device Frame -->
  <rect x="120" y="20" width="160" height="260" rx="20" fill="#262626" stroke="#FFD700" stroke-width="3"/>
  <rect x="130" y="40" width="140" height="220" rx="8" fill="#0A0A0A"/>
  
  <!-- Status Bar -->
  <rect x="135" y="45" width="130" height="15" fill="#404040"/>
  <circle cx="145" cy="52" r="2" fill="#FFD700"/>
  <circle cx="152" cy="52" r="2" fill="#FFD700"/>
  <circle cx="159" cy="52" r="2" fill="#FFD700"/>
  <rect x="245" y="48" width="15" height="8" rx="2" fill="#FFD700"/>
  
  <!-- App Header -->
  <rect x="135" y="65" width="130" height="30" fill="#404040"/>
  <circle cx="150" cy="80" r="6" fill="#FFD700"/>
  <path d="M147 77 L153 83 M153 77 L147 83" stroke="#0A0A0A" stroke-width="2"/>
  <rect x="170" y="75" width="60" height="10" rx="5" fill="#FFD700"/>
  
  <!-- Patient Monitoring Dashboard -->
  <rect x="140" y="105" width="120" height="60" rx="6" fill="#262626" stroke="#FFD700" stroke-width="1"/>
  
  <!-- Heart Rate Monitor -->
  <path d="M150 125 L155 120 L160 135 L165 115 L170 140 L175 125 L180 130 L185 125 L190 135 L195 120 L200 125 L205 130 L210 125 L215 135 L220 120 L225 125 L230 130 L235 125 L240 135 L245 120 L250 125" stroke="#FFD700" stroke-width="2" fill="none"/>
  
  <!-- Vital Signs -->
  <circle cx="155" cy="150" r="8" fill="#FFD700"/>
  <text x="155" y="155" text-anchor="middle" fill="#0A0A0A" font-size="10" font-family="Arial">♥</text>
  <text x="175" y="155" fill="#FFD700" font-size="12" font-family="Arial">72 BPM</text>
  
  <!-- Patient Cards -->
  <rect x="140" y="175" width="120" height="25" rx="4" fill="#404040"/>
  <circle cx="155" cy="187" r="6" fill="#666"/>
  <rect x="170" y="182" width="60" height="4" fill="#FFD700"/>
  <rect x="170" y="188" width="40" height="4" fill="#666"/>
  
  <rect x="140" y="205" width="120" height="25" rx="4" fill="#404040"/>
  <circle cx="155" cy="217" r="6" fill="#666"/>
  <rect x="170" y="212" width="50" height="4" fill="#FFD700"/>
  <rect x="170" y="218" width="35" height="4" fill="#666"/>
  
  <!-- AI Analysis Icon -->
  <circle cx="200" cy="245" r="12" fill="#FFD700"/>
  <rect x="194" y="239" width="12" height="12" rx="2" fill="#0A0A0A"/>
  <circle cx="197" cy="242" r="1" fill="#FFD700"/>
  <circle cx="203" cy="242" r="1" fill="#FFD700"/>
  <rect x="196" y="246" width="8" height="2" rx="1" fill="#FFD700"/>
  
  <!-- Notification Badges -->
  <circle cx="250" cy="70" r="6" fill="#FF5555"/>
  <text x="250" y="74" text-anchor="middle" fill="white" font-size="8" font-family="Arial">3</text>
  
  <!-- Side Medical Icons -->
  <rect x="50" y="80" width="50" height="50" rx="8" fill="#262626" stroke="#FFD700" stroke-width="1"/>
  <path d="M75 95 L75 115 M65 105 L85 105" stroke="#FFD700" stroke-width="4"/>
  
  <rect x="300" y="80" width="50" height="50" rx="8" fill="#262626" stroke="#FFD700" stroke-width="1"/>
  <circle cx="325" cy="105" r="12" fill="none" stroke="#FFD700" stroke-width="3"/>
  <path d="M320 105 L330 105 M325 100 L325 110" stroke="#FFD700" stroke-width="2"/>
  
  <!-- Stethoscope -->
  <path d="M60 180 Q70 170 80 180 Q90 190 100 180" stroke="#FFD700" stroke-width="3" fill="none"/>
  <circle cx="60" cy="180" r="6" fill="#FFD700"/>
  <circle cx="100" cy="180" r="6" fill="#FFD700"/>
  <circle cx="80" cy="200" r="8" fill="none" stroke="#FFD700" stroke-width="2"/>
  
  <!-- Medical Chart -->
  <rect x="300" y="150" width="60" height="80" rx="6" fill="#262626" stroke="#FFD700" stroke-width="1"/>
  <path d="M310 190 L320 180 L330 185 L340 175 L350 180" stroke="#FFD700" stroke-width="2" fill="none"/>
  <rect x="310" y="200" width="5" height="15" fill="#FFD700"/>
  <rect x="320" y="205" width="5" height="10" fill="#FFD700"/>
  <rect x="330" y="195" width="5" height="20" fill="#FFD700"/>
  <rect x="340" y="210" width="5" height="5" fill="#FFD700"/>
</svg>