<svg width="400" height="300" viewBox="0 0 400 300" fill="none" xmlns="http://www.w3.org/2000/svg">
  <!-- Background -->
  <rect width="400" height="300" fill="#0A0A0A"/>
  
  <!-- Search Engine Results Page -->
  <rect x="40" y="30" width="320" height="240" rx="12" fill="#262626" stroke="#FFD700" stroke-width="2"/>
  
  <!-- Search Bar -->
  <rect x="60" y="50" width="240" height="30" rx="15" fill="#404040" stroke="#FFD700" stroke-width="1"/>
  <circle cx="280" cy="65" r="8" fill="#FFD700"/>
  <path d="M285 70 L290 75" stroke="#0A0A0A" stroke-width="2"/>
  
  <!-- Search Results -->
  <rect x="60" y="100" width="280" height="40" rx="4" fill="#404040" stroke="#FFD700" stroke-width="1"/>
  <rect x="70" y="110" width="150" height="6" fill="#FFD700"/>
  <rect x="70" y="120" width="200" height="4" fill="#666"/>
  <rect x="70" y="127" width="120" height="4" fill="#666"/>
  
  <rect x="60" y="150" width="280" height="40" rx="4" fill="#404040" stroke="#FFD700" stroke-width="1"/>
  <rect x="70" y="160" width="180" height="6" fill="#FFD700"/>
  <rect x="70" y="170" width="220" height="4" fill="#666"/>
  <rect x="70" y="177" width="140" height="4" fill="#666"/>
  
  <rect x="60" y="200" width="280" height="40" rx="4" fill="#404040" stroke="#FFD700" stroke-width="1"/>
  <rect x="70" y="210" width="160" height="6" fill="#FFD700"/>
  <rect x="70" y="220" width="190" height="4" fill="#666"/>
  <rect x="70" y="227" width="110" height="4" fill="#666"/>
  
  <!-- SEO Magnifying Glass -->
  <circle cx="150" cy="150" r="30" fill="none" stroke="#FFD700" stroke-width="4" opacity="0.7"/>
  <path d="M170 170 L190 190" stroke="#FFD700" stroke-width="6" opacity="0.7"/>
  
  <!-- Keywords floating around -->
  <rect x="320" y="80" width="60" height="16" rx="8" fill="#FFD700" fill-opacity="0.2" stroke="#FFD700" stroke-width="1"/>
  <text x="350" y="92" text-anchor="middle" fill="#FFD700" font-size="8" font-family="Arial">KEYWORD</text>
  
  <rect x="320" y="120" width="50" height="16" rx="8" fill="#FFD700" fill-opacity="0.2" stroke="#FFD700" stroke-width="1"/>
  <text x="345" y="132" text-anchor="middle" fill="#FFD700" font-size="8" font-family="Arial">RANK</text>
  
  <rect x="320" y="160" width="55" height="16" rx="8" fill="#FFD700" fill-opacity="0.2" stroke="#FFD700" stroke-width="1"/>
  <text x="347" y="172" text-anchor="middle" fill="#FFD700" font-size="8" font-family="Arial">TRAFFIC</text>
  
  <!-- Rankings Chart -->
  <rect x="10" y="80" width="100" height="80" rx="6" fill="#262626" stroke="#FFD700" stroke-width="1"/>
  
  <!-- Upward trending graph -->
  <path d="M20 140 L30 130 L40 135 L50 120 L60 115 L70 110 L80 105 L90 100" stroke="#FFD700" stroke-width="3" fill="none"/>
  <circle cx="20" cy="140" r="2" fill="#FFD700"/>
  <circle cx="30" cy="130" r="2" fill="#FFD700"/>
  <circle cx="40" cy="135" r="2" fill="#FFD700"/>
  <circle cx="50" cy="120" r="2" fill="#FFD700"/>
  <circle cx="60" cy="115" r="2" fill="#FFD700"/>
  <circle cx="70" cy="110" r="2" fill="#FFD700"/>
  <circle cx="80" cy="105" r="2" fill="#FFD700"/>
  <circle cx="90" cy="100" r="2" fill="#FFD700"/>
  
  <!-- Position indicators -->
  <text x="25" y="95" fill="#FFD700" font-size="10" font-family="Arial">#1</text>
  <text x="25" y="155" fill="#666" font-size="8" font-family="Arial">Position</text>
</svg>