<svg width="1200" height="630" viewBox="0 0 1200 630" fill="none" xmlns="http://www.w3.org/2000/svg">
  <rect width="1200" height="630" fill="#0A0A0A"/>
  <circle cx="200" cy="500" r="130" fill="#FFD700" opacity="0.1"/>
  <circle cx="1000" cy="180" r="100" fill="#FFD700" opacity="0.05"/>

  <!-- Microphone -->
  <rect x="570" y="200" width="60" height="100" rx="30" fill="none" stroke="#FFD700" stroke-width="3"/>
  <rect x="560" y="210" width="80" height="30" fill="#0A0A0A"/>
  <rect x="560" y="260" width="80" height="30" fill="#0A0A0A"/>

  <line x1="600" y1="300" x2="600" y2="350" stroke="#FFD700" stroke-width="3"/>
  <line x1="560" y1="350" x2="640" y2="350" stroke="#FFD700" stroke-width="3"/>

  <!-- Sound Waves -->
  <path d="M 500 250 Q 480 250, 480 270 Q 480 290, 500 290" fill="none" stroke="#FFD700" stroke-width="2" opacity="0.6"/>
  <path d="M 700 250 Q 720 250, 720 270 Q 720 290, 700 290" fill="none" stroke="#FFD700" stroke-width="2" opacity="0.6"/>

  <path d="M 460 240 Q 430 240, 430 270 Q 430 300, 460 300" fill="none" stroke="#FFD700" stroke-width="2" opacity="0.3"/>
  <path d="M 740 240 Q 770 240, 770 270 Q 770 300, 740 300" fill="none" stroke="#FFD700" stroke-width="2" opacity="0.3"/>

  <text x="600" y="470" font-family="Arial, sans-serif" font-size="42" font-weight="bold" fill="#FFFFFF" text-anchor="middle">Bootstrapper's Playbook</text>
  <text x="600" y="520" font-family="Arial, sans-serif" font-size="24" fill="#FFD700" text-anchor="middle">$0 to $10M ARR</text>
</svg>
